{
	"asset": {
		"version" : "2.0",
		"generator": "technik's gltf 2.0 exporter",
		"copyright": "2018 (c) Carmelo J. Fdez-Agüera"
	},
	"scene" : 0,
	"scenes": [
		{
			"name": "unityScene",
			"nodes": [ 0 ]
		}
	],
	"nodes": [
		{
			"name": "geom",
			"translation": [
				0,
				0,
				0
			],
			"rotation": [
				0,
				0,
				0,
				1
			],
			"scale": [
				1,
				1,
				1
			],
			"children": [ 1, 2]
		},
		{
			"name": "Plane",
			"translation": [
				0,
				0,
				0
			],
			"rotation": [
				0,
				0,
				0,
				1
			],
			"scale": [
				4,
				1,
				2
			],
			"mesh": 0
		},
		{
			"name": "knobs",
			"translation": [
				0,
				0,
				0
			],
			"rotation": [
				0,
				0,
				0,
				1
			],
			"scale": [
				1,
				1,
				1
			],
			"children": [ 3, 6, 9, 12, 15, 18, 21, 24, 27]
		},
		{
			"name": "r0",
			"translation": [
				12,
				0,
				0
			],
			"rotation": [
				0,
				0,
				0,
				1
			],
			"scale": [
				1,
				1,
				1
			],
			"children": [ 4, 5]
		},
		{
			"name": "shell",
			"translation": [
				0,
				0,
				0
			],
			"rotation": [
				0,
				0,
				0,
				1
			],
			"scale": [
				1,
				1,
				1
			],
			"mesh": 1
		},
		{
			"name": "ball",
			"translation": [
				-0.005,
				0.02,
				0.13292
			],
			"rotation": [
				0,
				0,
				0,
				1
			],
			"scale": [
				1.01,
				1.01,
				1.01
			],
			"mesh": 2
		},
		{
			"name": "r0125",
			"translation": [
				9,
				0,
				0
			],
			"rotation": [
				0,
				0,
				0,
				1
			],
			"scale": [
				1,
				1,
				1
			],
			"children": [ 7, 8]
		},
		{
			"name": "shell",
			"translation": [
				0,
				0,
				0
			],
			"rotation": [
				0,
				0,
				0,
				1
			],
			"scale": [
				1,
				1,
				1
			],
			"mesh": 3
		},
		{
			"name": "ball",
			"translation": [
				-0.005,
				0.02,
				0.13292
			],
			"rotation": [
				0,
				0,
				0,
				1
			],
			"scale": [
				1.01,
				1.01,
				1.01
			],
			"mesh": 2
		},
		{
			"name": "r025",
			"translation": [
				6,
				0,
				0
			],
			"rotation": [
				0,
				0,
				0,
				1
			],
			"scale": [
				1,
				1,
				1
			],
			"children": [ 10, 11]
		},
		{
			"name": "shell",
			"translation": [
				0,
				0,
				0
			],
			"rotation": [
				0,
				0,
				0,
				1
			],
			"scale": [
				1,
				1,
				1
			],
			"mesh": 4
		},
		{
			"name": "ball",
			"translation": [
				-0.005,
				0.02,
				0.13292
			],
			"rotation": [
				0,
				0,
				0,
				1
			],
			"scale": [
				1.01,
				1.01,
				1.01
			],
			"mesh": 2
		},
		{
			"name": "r0375",
			"translation": [
				3,
				0,
				0
			],
			"rotation": [
				0,
				0,
				0,
				1
			],
			"scale": [
				1,
				1,
				1
			],
			"children": [ 13, 14]
		},
		{
			"name": "shell",
			"translation": [
				0,
				0,
				0
			],
			"rotation": [
				0,
				0,
				0,
				1
			],
			"scale": [
				1,
				1,
				1
			],
			"mesh": 5
		},
		{
			"name": "ball",
			"translation": [
				-0.005,
				0.02,
				0.13292
			],
			"rotation": [
				0,
				0,
				0,
				1
			],
			"scale": [
				1.01,
				1.01,
				1.01
			],
			"mesh": 2
		},
		{
			"name": "r05",
			"translation": [
				0,
				0,
				0
			],
			"rotation": [
				0,
				0,
				0,
				1
			],
			"scale": [
				1,
				1,
				1
			],
			"children": [ 16, 17]
		},
		{
			"name": "shell",
			"translation": [
				0,
				0,
				0
			],
			"rotation": [
				0,
				0,
				0,
				1
			],
			"scale": [
				1,
				1,
				1
			],
			"mesh": 6
		},
		{
			"name": "ball",
			"translation": [
				-0.005,
				0.02,
				0.13292
			],
			"rotation": [
				0,
				0,
				0,
				1
			],
			"scale": [
				1.01,
				1.01,
				1.01
			],
			"mesh": 2
		},
		{
			"name": "r0675",
			"translation": [
				-3,
				0,
				0
			],
			"rotation": [
				0,
				0,
				0,
				1
			],
			"scale": [
				1,
				1,
				1
			],
			"children": [ 19, 20]
		},
		{
			"name": "shell",
			"translation": [
				0,
				0,
				0
			],
			"rotation": [
				0,
				0,
				0,
				1
			],
			"scale": [
				1,
				1,
				1
			],
			"mesh": 7
		},
		{
			"name": "ball",
			"translation": [
				-0.005,
				0.02,
				0.13292
			],
			"rotation": [
				0,
				0,
				0,
				1
			],
			"scale": [
				1.01,
				1.01,
				1.01
			],
			"mesh": 2
		},
		{
			"name": "r075",
			"translation": [
				-6,
				0,
				0
			],
			"rotation": [
				0,
				0,
				0,
				1
			],
			"scale": [
				1,
				1,
				1
			],
			"children": [ 22, 23]
		},
		{
			"name": "shell",
			"translation": [
				0,
				0,
				0
			],
			"rotation": [
				0,
				0,
				0,
				1
			],
			"scale": [
				1,
				1,
				1
			],
			"mesh": 8
		},
		{
			"name": "ball",
			"translation": [
				-0.005,
				0.02,
				0.13292
			],
			"rotation": [
				0,
				0,
				0,
				1
			],
			"scale": [
				1.01,
				1.01,
				1.01
			],
			"mesh": 2
		},
		{
			"name": "r0875",
			"translation": [
				-9,
				0,
				0
			],
			"rotation": [
				0,
				0,
				0,
				1
			],
			"scale": [
				1,
				1,
				1
			],
			"children": [ 25, 26]
		},
		{
			"name": "shell",
			"translation": [
				0,
				0,
				0
			],
			"rotation": [
				0,
				0,
				0,
				1
			],
			"scale": [
				1,
				1,
				1
			],
			"mesh": 9
		},
		{
			"name": "ball",
			"translation": [
				-0.005,
				0.02,
				0.13292
			],
			"rotation": [
				0,
				0,
				0,
				1
			],
			"scale": [
				1.01,
				1.01,
				1.01
			],
			"mesh": 2
		},
		{
			"name": "r1",
			"translation": [
				-12,
				0,
				0
			],
			"rotation": [
				0,
				0,
				0,
				1
			],
			"scale": [
				1,
				1,
				1
			],
			"children": [ 28, 29]
		},
		{
			"name": "shell",
			"translation": [
				0,
				0,
				0
			],
			"rotation": [
				0,
				0,
				0,
				1
			],
			"scale": [
				1,
				1,
				1
			],
			"mesh": 10
		},
		{
			"name": "ball",
			"translation": [
				-0.005,
				0.02,
				0.13292
			],
			"rotation": [
				0,
				0,
				0,
				1
			],
			"scale": [
				1.01,
				1.01,
				1.01
			],
			"mesh": 2
		}
	],
	"meshes": [
		{
			"name": "Plane",
			"primitives": [
				{
					"attributes": {
						"POSITION": 0,
						"NORMAL": 1,
						"TANGENT": 2,
						"TEXCOORD_0": 3
					},
					"indices" : 4,
					"material": 0, 
					"mode": 4
				}
			]
		},
		{
			"name": "3",
			"primitives": [
				{
					"attributes": {
						"POSITION": 5,
						"NORMAL": 6,
						"TANGENT": 7,
						"TEXCOORD_0": 8
					},
					"indices" : 9,
					"material": 1, 
					"mode": 4
				}
			]
		},
		{
			"name": "2",
			"primitives": [
				{
					"attributes": {
						"POSITION": 10,
						"NORMAL": 11,
						"TANGENT": 12,
						"TEXCOORD_0": 13
					},
					"indices" : 14,
					"material": 2, 
					"mode": 4
				}
			]
		},
		{
			"name": "3",
			"primitives": [
				{
					"attributes": {
						"POSITION": 15,
						"NORMAL": 16,
						"TANGENT": 17,
						"TEXCOORD_0": 18
					},
					"indices" : 19,
					"material": 3, 
					"mode": 4
				}
			]
		},
		{
			"name": "3",
			"primitives": [
				{
					"attributes": {
						"POSITION": 20,
						"NORMAL": 21,
						"TANGENT": 22,
						"TEXCOORD_0": 23
					},
					"indices" : 24,
					"material": 4, 
					"mode": 4
				}
			]
		},
		{
			"name": "3",
			"primitives": [
				{
					"attributes": {
						"POSITION": 25,
						"NORMAL": 26,
						"TANGENT": 27,
						"TEXCOORD_0": 28
					},
					"indices" : 29,
					"material": 5, 
					"mode": 4
				}
			]
		},
		{
			"name": "3",
			"primitives": [
				{
					"attributes": {
						"POSITION": 30,
						"NORMAL": 31,
						"TANGENT": 32,
						"TEXCOORD_0": 33
					},
					"indices" : 34,
					"material": 6, 
					"mode": 4
				}
			]
		},
		{
			"name": "3",
			"primitives": [
				{
					"attributes": {
						"POSITION": 35,
						"NORMAL": 36,
						"TANGENT": 37,
						"TEXCOORD_0": 38
					},
					"indices" : 39,
					"material": 7, 
					"mode": 4
				}
			]
		},
		{
			"name": "3",
			"primitives": [
				{
					"attributes": {
						"POSITION": 40,
						"NORMAL": 41,
						"TANGENT": 42,
						"TEXCOORD_0": 43
					},
					"indices" : 44,
					"material": 8, 
					"mode": 4
				}
			]
		},
		{
			"name": "3",
			"primitives": [
				{
					"attributes": {
						"POSITION": 45,
						"NORMAL": 46,
						"TANGENT": 47,
						"TEXCOORD_0": 48
					},
					"indices" : 49,
					"material": 9, 
					"mode": 4
				}
			]
		},
		{
			"name": "3",
			"primitives": [
				{
					"attributes": {
						"POSITION": 50,
						"NORMAL": 51,
						"TANGENT": 52,
						"TEXCOORD_0": 53
					},
					"indices" : 54,
					"material": 10, 
					"mode": 4
				}
			]
		}
	],
	"materials": [
		{
			"name": "ground",
			"pbrMetallicRoughness": {
				"baseColorFactor": [1, 0.9858491, 0.9858491, 1],
				"metallicFactor":0.003,
				"roughnessFactor":0.866
			}
		},
		{
			"name": "r-0",
			"pbrMetallicRoughness": {
				"baseColorFactor": [1, 1, 1, 1],
				"metallicFactor":1,
				"roughnessFactor":0
			}
		},
		{
			"name": "reference",
			"pbrMetallicRoughness": {
				"baseColorFactor": [0.5, 0.5, 0.5, 1],
				"metallicFactor":0,
				"roughnessFactor":1
			}
		},
		{
			"name": "r-0125",
			"pbrMetallicRoughness": {
				"baseColorFactor": [1, 1, 1, 1],
				"metallicFactor":1,
				"roughnessFactor":0.125
			}
		},
		{
			"name": "r-025",
			"pbrMetallicRoughness": {
				"baseColorFactor": [1, 1, 1, 1],
				"metallicFactor":1,
				"roughnessFactor":0.25
			}
		},
		{
			"name": "r-0375",
			"pbrMetallicRoughness": {
				"baseColorFactor": [1, 1, 1, 1],
				"metallicFactor":1,
				"roughnessFactor":0.375
			}
		},
		{
			"name": "r-05",
			"pbrMetallicRoughness": {
				"baseColorFactor": [1, 1, 1, 1],
				"metallicFactor":1,
				"roughnessFactor":0.5
			}
		},
		{
			"name": "r-0625",
			"pbrMetallicRoughness": {
				"baseColorFactor": [1, 1, 1, 1],
				"metallicFactor":1,
				"roughnessFactor":0.625
			}
		},
		{
			"name": "r-075",
			"pbrMetallicRoughness": {
				"baseColorFactor": [1, 1, 1, 1],
				"metallicFactor":1,
				"roughnessFactor":0.75
			}
		},
		{
			"name": "r-0875",
			"pbrMetallicRoughness": {
				"baseColorFactor": [1, 1, 1, 1],
				"metallicFactor":1,
				"roughnessFactor":0.875
			}
		},
		{
			"name": "r-1",
			"pbrMetallicRoughness": {
				"baseColorFactor": [1, 1, 1, 1],
				"metallicFactor":1,
				"roughnessFactor":1
			}
		}
	],
	"bufferViews": [
			{
				"buffer": 0,
				"byteLength": 5808,
				"byteOffset": 0,
				"byteStride": 48,
				"target": 34962
			},
			{
				"buffer": 0,
				"byteLength": 1200,
				"byteOffset": 5808,
				"target": 34963
			},
			{
				"buffer": 0,
				"byteLength": 1413504,
				"byteOffset": 7008,
				"byteStride": 48,
				"target": 34962
			},
			{
				"buffer": 0,
				"byteLength": 342912,
				"byteOffset": 1420512,
				"target": 34963
			},
			{
				"buffer": 0,
				"byteLength": 99744,
				"byteOffset": 1763424,
				"byteStride": 48,
				"target": 34962
			},
			{
				"buffer": 0,
				"byteLength": 23616,
				"byteOffset": 1863168,
				"target": 34963
			},
			{
				"buffer": 0,
				"byteLength": 1413504,
				"byteOffset": 1886784,
				"byteStride": 48,
				"target": 34962
			},
			{
				"buffer": 0,
				"byteLength": 342912,
				"byteOffset": 3300288,
				"target": 34963
			},
			{
				"buffer": 0,
				"byteLength": 1413504,
				"byteOffset": 3643200,
				"byteStride": 48,
				"target": 34962
			},
			{
				"buffer": 0,
				"byteLength": 342912,
				"byteOffset": 5056704,
				"target": 34963
			},
			{
				"buffer": 0,
				"byteLength": 1413504,
				"byteOffset": 5399616,
				"byteStride": 48,
				"target": 34962
			},
			{
				"buffer": 0,
				"byteLength": 342912,
				"byteOffset": 6813120,
				"target": 34963
			},
			{
				"buffer": 0,
				"byteLength": 1413504,
				"byteOffset": 7156032,
				"byteStride": 48,
				"target": 34962
			},
			{
				"buffer": 0,
				"byteLength": 342912,
				"byteOffset": 8569536,
				"target": 34963
			},
			{
				"buffer": 0,
				"byteLength": 1413504,
				"byteOffset": 8912448,
				"byteStride": 48,
				"target": 34962
			},
			{
				"buffer": 0,
				"byteLength": 342912,
				"byteOffset": 10325952,
				"target": 34963
			},
			{
				"buffer": 0,
				"byteLength": 1413504,
				"byteOffset": 10668864,
				"byteStride": 48,
				"target": 34962
			},
			{
				"buffer": 0,
				"byteLength": 342912,
				"byteOffset": 12082368,
				"target": 34963
			},
			{
				"buffer": 0,
				"byteLength": 1413504,
				"byteOffset": 12425280,
				"byteStride": 48,
				"target": 34962
			},
			{
				"buffer": 0,
				"byteLength": 342912,
				"byteOffset": 13838784,
				"target": 34963
			},
			{
				"buffer": 0,
				"byteLength": 1413504,
				"byteOffset": 14181696,
				"byteStride": 48,
				"target": 34962
			},
			{
				"buffer": 0,
				"byteLength": 342912,
				"byteOffset": 15595200,
				"target": 34963
			}
	],
	"accessors": [
		{
			"bufferView" : 0,
			"byteOffset": 0,
			"componentType": 5126,
			"count": 121,
			"type": "VEC3",
			"min": [-5, -1.110223E-16, -5],
			"max": [5, 1.110223E-16, 5]
		},
		{
			"bufferView" : 0,
			"byteOffset": 12,
			"componentType": 5126,
			"count": 121,
			"type": "VEC3"
		},
		{
			"bufferView" : 0,
			"byteOffset": 24,
			"componentType": 5126,
			"count": 121,
			"type": "VEC4"
		},
		{
			"bufferView" : 0,
			"byteOffset": 40,
			"componentType": 5126,
			"count": 121,
			"type": "VEC2"
		},
		{
			"bufferView" : 1,
			"byteOffset": 0,
			"componentType": 5123,
			"count": 600,
			"type": "SCALAR"
		},
		{
			"bufferView" : 2,
			"byteOffset": 0,
			"componentType": 5126,
			"count": 29448,
			"type": "VEC3",
			"min": [-1.2199, -0.01940012, -1.0803],
			"max": [1.2199, 2.1703, 1.1426]
		},
		{
			"bufferView" : 2,
			"byteOffset": 12,
			"componentType": 5126,
			"count": 29448,
			"type": "VEC3"
		},
		{
			"bufferView" : 2,
			"byteOffset": 24,
			"componentType": 5126,
			"count": 29448,
			"type": "VEC4"
		},
		{
			"bufferView" : 2,
			"byteOffset": 40,
			"componentType": 5126,
			"count": 29448,
			"type": "VEC2"
		},
		{
			"bufferView" : 3,
			"byteOffset": 0,
			"componentType": 5123,
			"count": 171456,
			"type": "SCALAR"
		},
		{
			"bufferView" : 4,
			"byteOffset": 0,
			"componentType": 5126,
			"count": 2078,
			"type": "VEC3",
			"min": [-1.0605, -0.03559995, -1.0522],
			"max": [1.0605, 1.9293, 1.0689]
		},
		{
			"bufferView" : 4,
			"byteOffset": 12,
			"componentType": 5126,
			"count": 2078,
			"type": "VEC3"
		},
		{
			"bufferView" : 4,
			"byteOffset": 24,
			"componentType": 5126,
			"count": 2078,
			"type": "VEC4"
		},
		{
			"bufferView" : 4,
			"byteOffset": 40,
			"componentType": 5126,
			"count": 2078,
			"type": "VEC2"
		},
		{
			"bufferView" : 5,
			"byteOffset": 0,
			"componentType": 5123,
			"count": 11808,
			"type": "SCALAR"
		},
		{
			"bufferView" : 6,
			"byteOffset": 0,
			"componentType": 5126,
			"count": 29448,
			"type": "VEC3",
			"min": [-1.2199, -0.01940012, -1.0803],
			"max": [1.2199, 2.1703, 1.1426]
		},
		{
			"bufferView" : 6,
			"byteOffset": 12,
			"componentType": 5126,
			"count": 29448,
			"type": "VEC3"
		},
		{
			"bufferView" : 6,
			"byteOffset": 24,
			"componentType": 5126,
			"count": 29448,
			"type": "VEC4"
		},
		{
			"bufferView" : 6,
			"byteOffset": 40,
			"componentType": 5126,
			"count": 29448,
			"type": "VEC2"
		},
		{
			"bufferView" : 7,
			"byteOffset": 0,
			"componentType": 5123,
			"count": 171456,
			"type": "SCALAR"
		},
		{
			"bufferView" : 8,
			"byteOffset": 0,
			"componentType": 5126,
			"count": 29448,
			"type": "VEC3",
			"min": [-1.2199, -0.01940012, -1.0803],
			"max": [1.2199, 2.1703, 1.1426]
		},
		{
			"bufferView" : 8,
			"byteOffset": 12,
			"componentType": 5126,
			"count": 29448,
			"type": "VEC3"
		},
		{
			"bufferView" : 8,
			"byteOffset": 24,
			"componentType": 5126,
			"count": 29448,
			"type": "VEC4"
		},
		{
			"bufferView" : 8,
			"byteOffset": 40,
			"componentType": 5126,
			"count": 29448,
			"type": "VEC2"
		},
		{
			"bufferView" : 9,
			"byteOffset": 0,
			"componentType": 5123,
			"count": 171456,
			"type": "SCALAR"
		},
		{
			"bufferView" : 10,
			"byteOffset": 0,
			"componentType": 5126,
			"count": 29448,
			"type": "VEC3",
			"min": [-1.2199, -0.01940012, -1.0803],
			"max": [1.2199, 2.1703, 1.1426]
		},
		{
			"bufferView" : 10,
			"byteOffset": 12,
			"componentType": 5126,
			"count": 29448,
			"type": "VEC3"
		},
		{
			"bufferView" : 10,
			"byteOffset": 24,
			"componentType": 5126,
			"count": 29448,
			"type": "VEC4"
		},
		{
			"bufferView" : 10,
			"byteOffset": 40,
			"componentType": 5126,
			"count": 29448,
			"type": "VEC2"
		},
		{
			"bufferView" : 11,
			"byteOffset": 0,
			"componentType": 5123,
			"count": 171456,
			"type": "SCALAR"
		},
		{
			"bufferView" : 12,
			"byteOffset": 0,
			"componentType": 5126,
			"count": 29448,
			"type": "VEC3",
			"min": [-1.2199, -0.01940012, -1.0803],
			"max": [1.2199, 2.1703, 1.1426]
		},
		{
			"bufferView" : 12,
			"byteOffset": 12,
			"componentType": 5126,
			"count": 29448,
			"type": "VEC3"
		},
		{
			"bufferView" : 12,
			"byteOffset": 24,
			"componentType": 5126,
			"count": 29448,
			"type": "VEC4"
		},
		{
			"bufferView" : 12,
			"byteOffset": 40,
			"componentType": 5126,
			"count": 29448,
			"type": "VEC2"
		},
		{
			"bufferView" : 13,
			"byteOffset": 0,
			"componentType": 5123,
			"count": 171456,
			"type": "SCALAR"
		},
		{
			"bufferView" : 14,
			"byteOffset": 0,
			"componentType": 5126,
			"count": 29448,
			"type": "VEC3",
			"min": [-1.2199, -0.01940012, -1.0803],
			"max": [1.2199, 2.1703, 1.1426]
		},
		{
			"bufferView" : 14,
			"byteOffset": 12,
			"componentType": 5126,
			"count": 29448,
			"type": "VEC3"
		},
		{
			"bufferView" : 14,
			"byteOffset": 24,
			"componentType": 5126,
			"count": 29448,
			"type": "VEC4"
		},
		{
			"bufferView" : 14,
			"byteOffset": 40,
			"componentType": 5126,
			"count": 29448,
			"type": "VEC2"
		},
		{
			"bufferView" : 15,
			"byteOffset": 0,
			"componentType": 5123,
			"count": 171456,
			"type": "SCALAR"
		},
		{
			"bufferView" : 16,
			"byteOffset": 0,
			"componentType": 5126,
			"count": 29448,
			"type": "VEC3",
			"min": [-1.2199, -0.01940012, -1.0803],
			"max": [1.2199, 2.1703, 1.1426]
		},
		{
			"bufferView" : 16,
			"byteOffset": 12,
			"componentType": 5126,
			"count": 29448,
			"type": "VEC3"
		},
		{
			"bufferView" : 16,
			"byteOffset": 24,
			"componentType": 5126,
			"count": 29448,
			"type": "VEC4"
		},
		{
			"bufferView" : 16,
			"byteOffset": 40,
			"componentType": 5126,
			"count": 29448,
			"type": "VEC2"
		},
		{
			"bufferView" : 17,
			"byteOffset": 0,
			"componentType": 5123,
			"count": 171456,
			"type": "SCALAR"
		},
		{
			"bufferView" : 18,
			"byteOffset": 0,
			"componentType": 5126,
			"count": 29448,
			"type": "VEC3",
			"min": [-1.2199, -0.01940012, -1.0803],
			"max": [1.2199, 2.1703, 1.1426]
		},
		{
			"bufferView" : 18,
			"byteOffset": 12,
			"componentType": 5126,
			"count": 29448,
			"type": "VEC3"
		},
		{
			"bufferView" : 18,
			"byteOffset": 24,
			"componentType": 5126,
			"count": 29448,
			"type": "VEC4"
		},
		{
			"bufferView" : 18,
			"byteOffset": 40,
			"componentType": 5126,
			"count": 29448,
			"type": "VEC2"
		},
		{
			"bufferView" : 19,
			"byteOffset": 0,
			"componentType": 5123,
			"count": 171456,
			"type": "SCALAR"
		},
		{
			"bufferView" : 20,
			"byteOffset": 0,
			"componentType": 5126,
			"count": 29448,
			"type": "VEC3",
			"min": [-1.2199, -0.01940012, -1.0803],
			"max": [1.2199, 2.1703, 1.1426]
		},
		{
			"bufferView" : 20,
			"byteOffset": 12,
			"componentType": 5126,
			"count": 29448,
			"type": "VEC3"
		},
		{
			"bufferView" : 20,
			"byteOffset": 24,
			"componentType": 5126,
			"count": 29448,
			"type": "VEC4"
		},
		{
			"bufferView" : 20,
			"byteOffset": 40,
			"componentType": 5126,
			"count": 29448,
			"type": "VEC2"
		},
		{
			"bufferView" : 21,
			"byteOffset": 0,
			"componentType": 5123,
			"count": 171456,
			"type": "SCALAR"
		}
	],
	"buffers": [
		{
			"byteLength": 15938112,
			"uri": "metalMirror.bin"
		}
	]
}