{
	"asset": {
		"version" : "2.0",
		"generator": "technik's gltf 2.0 exporter"
	},
	"scene" : 0,
	"scenes": [
		{
			"name": "unityScene",
			"nodes": [ 0 ]
		}
	],
	"nodes": [
		{
			"name": "StandingLight (2)",
			"translation": [
				-4.7,
				-0.7820337,
				-40.28
			],
			"rotation": [
				0,
				-0.8815096,
				0,
				0.4721661
			],
			"scale": [
				1,
				1,
				1
			],
			"children": [ 1, 3, 4, 5, 6, 7, 8, 9, 10, 11, 12, 16]
		},
		{
			"name": "LightBulb",
			"translation": [
				0,
				0.001,
				0
			],
			"rotation": [
				0,
				0,
				0,
				1
			],
			"scale": [
				0.01,
				0.01,
				0.01
			],
			"mesh": 0,
			"children": [ 2]
		},
		{
			"name": "SpotlightMain",
			"translation": [
				50.9,
				208,
				-1
			],
			"rotation": [
				0,
				0.7071068,
				0,
				0.7071067
			],
			"scale": [
				1,
				1,
				1
			],
			"light": 0
		},
		{
			"name": "BottomLegs",
			"translation": [
				0,
				0.0009999871,
				0
			],
			"rotation": [
				0,
				0.6259235,
				0,
				0.7798845
			],
			"scale": [
				0.01,
				0.01,
				0.01
			],
			"mesh": 1
		},
		{
			"name": "LightFix",
			"translation": [
				0,
				0.001,
				0
			],
			"rotation": [
				0,
				0,
				0,
				1
			],
			"scale": [
				0.01,
				0.01,
				0.01
			],
			"mesh": 2
		},
		{
			"name": "MiddleT",
			"translation": [
				0,
				0.001,
				0
			],
			"rotation": [
				0,
				0,
				0,
				1
			],
			"scale": [
				0.01,
				0.01,
				0.01
			],
			"mesh": 3
		},
		{
			"name": "TopHandle",
			"translation": [
				0,
				0.001,
				0
			],
			"rotation": [
				0,
				0,
				0,
				1
			],
			"scale": [
				0.01,
				0.01,
				0.01
			],
			"mesh": 4
		},
		{
			"name": "TopLights",
			"translation": [
				0,
				0.001,
				0
			],
			"rotation": [
				0,
				0,
				0,
				1
			],
			"scale": [
				0.01,
				0.01,
				0.01
			],
			"mesh": 5
		},
		{
			"name": "Probe",
			"translation": [
				0,
				1.19,
				0
			],
			"rotation": [
				0,
				0,
				0,
				1
			],
			"scale": [
				1,
				1,
				1
			]
		},
		{
			"name": "ShadowBlob",
			"translation": [
				0,
				0.0009999871,
				0
			],
			"rotation": [
				0,
				0.6259235,
				0,
				0.7798845
			],
			"scale": [
				1,
				1,
				1
			],
			"mesh": 6
		},
		{
			"name": "Sound-Start",
			"translation": [
				0,
				1.893,
				0
			],
			"rotation": [
				0,
				0,
				0,
				1
			],
			"scale": [
				1,
				1,
				1
			]
		},
		{
			"name": "Sound-Constant",
			"translation": [
				0,
				1.893,
				0
			],
			"rotation": [
				0,
				0,
				0,
				1
			],
			"scale": [
				1,
				1,
				1
			]
		},
		{
			"name": "StandingLight Low",
			"translation": [
				0,
				0,
				0
			],
			"rotation": [
				0,
				0,
				0,
				1
			],
			"scale": [
				1,
				1,
				1
			],
			"children": [ 13, 14, 15]
		},
		{
			"name": "BottomLegs",
			"translation": [
				0,
				0,
				0
			],
			"rotation": [
				0,
				0.6259235,
				0,
				0.7798845
			],
			"scale": [
				1,
				1,
				1
			],
			"mesh": 7
		},
		{
			"name": "MiddleT",
			"translation": [
				0,
				0,
				0
			],
			"rotation": [
				0,
				0,
				0,
				1
			],
			"scale": [
				1,
				1,
				1
			],
			"mesh": 8
		},
		{
			"name": "TopHandle",
			"translation": [
				0,
				0,
				0
			],
			"rotation": [
				0,
				0,
				0,
				1
			],
			"scale": [
				1,
				1,
				1
			],
			"mesh": 9
		},
		{
			"name": "StandingLight Shadow",
			"translation": [
				0,
				0,
				0
			],
			"rotation": [
				0,
				0,
				0,
				1
			],
			"scale": [
				1,
				1,
				1
			],
			"children": [ 17, 18, 19]
		},
		{
			"name": "BottomLegs",
			"translation": [
				0,
				0,
				0
			],
			"rotation": [
				0,
				0.6259235,
				0,
				0.7798845
			],
			"scale": [
				1,
				1,
				1
			],
			"mesh": 7
		},
		{
			"name": "MiddleT",
			"translation": [
				0,
				0,
				0
			],
			"rotation": [
				0,
				0,
				0,
				1
			],
			"scale": [
				1,
				1,
				1
			],
			"mesh": 8
		},
		{
			"name": "TopLights",
			"translation": [
				0,
				0,
				0
			],
			"rotation": [
				0,
				0,
				0,
				1
			],
			"scale": [
				1,
				1,
				1
			],
			"mesh": 10
		}
	],
	"meshes": [
		{
			"primitives": [
				{
					"attributes": {
						"POSITION": 0,
						"NORMAL": 1,
						"TANGENT": 2,
						"TEXCOORD_0": 3
					},
					"indices" : 4,
					"material": 0, 
					"mode": 4
				}
			]
		},
		{
			"primitives": [
				{
					"attributes": {
						"POSITION": 5,
						"NORMAL": 6,
						"TANGENT": 7,
						"TEXCOORD_0": 8
					},
					"indices" : 9,
					"material": 1, 
					"mode": 4
				}
			]
		},
		{
			"primitives": [
				{
					"attributes": {
						"POSITION": 10,
						"NORMAL": 11,
						"TANGENT": 12,
						"TEXCOORD_0": 13
					},
					"indices" : 14,
					"material": 1, 
					"mode": 4
				}
			]
		},
		{
			"primitives": [
				{
					"attributes": {
						"POSITION": 15,
						"NORMAL": 16,
						"TANGENT": 17,
						"TEXCOORD_0": 18
					},
					"indices" : 19,
					"material": 1, 
					"mode": 4
				}
			]
		},
		{
			"primitives": [
				{
					"attributes": {
						"POSITION": 20,
						"NORMAL": 21,
						"TANGENT": 22,
						"TEXCOORD_0": 23
					},
					"indices" : 24,
					"material": 1, 
					"mode": 4
				}
			]
		},
		{
			"primitives": [
				{
					"attributes": {
						"POSITION": 25,
						"NORMAL": 26,
						"TANGENT": 27,
						"TEXCOORD_0": 28
					},
					"indices" : 29,
					"material": 1, 
					"mode": 4
				}
			]
		},
		{
			"primitives": [
				{
					"attributes": {
						"POSITION": 30,
						"NORMAL": 31,
						"TANGENT": 32,
						"TEXCOORD_0": 33
					},
					"indices" : 34,
					"material": 2, 
					"mode": 4
				}
			]
		},
		{
			"primitives": [
				{
					"attributes": {
						"POSITION": 35,
						"NORMAL": 36,
						"TANGENT": 37,
						"TEXCOORD_0": 38
					},
					"indices" : 39,
					"material": 1, 
					"mode": 4
				}
			]
		},
		{
			"primitives": [
				{
					"attributes": {
						"POSITION": 40,
						"NORMAL": 41,
						"TANGENT": 42,
						"TEXCOORD_0": 43
					},
					"indices" : 44,
					"material": 1, 
					"mode": 4
				}
			]
		},
		{
			"primitives": [
				{
					"attributes": {
						"POSITION": 45,
						"NORMAL": 46,
						"TANGENT": 47,
						"TEXCOORD_0": 48
					},
					"indices" : 49,
					"material": 1, 
					"mode": 4
				}
			]
		},
		{
			"primitives": [
				{
					"attributes": {
						"POSITION": 50,
						"NORMAL": 51,
						"TANGENT": 52,
						"TEXCOORD_0": 53
					},
					"indices" : 54,
					"material": 1, 
					"mode": 4
				}
			]
		}
	],
	"materials": [
		{
			"pbrMetallicRoughness": {
				"baseColorFactor": [1, 1, 1, 1],
				"metallicFactor":0,
				"roughnessFactor":0.5
			},
			"name": "EmissiveLightStandingBulb"
		},
		{
			"pbrMetallicRoughness": {
				"baseColorFactor": [1, 1, 1, 1],
				"metallicFactor":0.213,
				"roughnessFactor":0.619
			},
			"name": "StandingLight"
		},
		{
			"pbrMetallicRoughness": {
				"baseColorFactor": [0, 0, 0, 0.509],
				"metallicFactor":1,
				"roughnessFactor":1
			},
			"name": "StandingLight_Base_BlobAmbient_Occlusion 1"
		}
	],
	"accessors": [
		{
			"bufferView" : 0,
			"byteOffset": 0,
			"componentType": 5126,
			"count": 120,
			"type": "VEC3",
			"min": [-3.068208, 201.4224, -30.11373],
			"max": [-0.2010033, 204.1493, 30.11373]
		},
		{
			"bufferView" : 0,
			"byteOffset": 12,
			"componentType": 5126,
			"count": 120,
			"type": "VEC3"
		},
		{
			"bufferView" : 0,
			"byteOffset": 24,
			"componentType": 5126,
			"count": 120,
			"type": "VEC4"
		},
		{
			"bufferView" : 0,
			"byteOffset": 40,
			"componentType": 5126,
			"count": 120,
			"type": "VEC2"
		},
		{
			"bufferView" : 1,
			"byteOffset": 0,
			"componentType": 5123,
			"count": 480,
			"type": "SCALAR"
		},
		{
			"bufferView" : 2,
			"byteOffset": 0,
			"componentType": 5126,
			"count": 3615,
			"type": "VEC3",
			"min": [-51.67681, -0.5084877, -45.20775],
			"max": [27.36855, 52.48765, 45.20775]
		},
		{
			"bufferView" : 2,
			"byteOffset": 12,
			"componentType": 5126,
			"count": 3615,
			"type": "VEC3"
		},
		{
			"bufferView" : 2,
			"byteOffset": 24,
			"componentType": 5126,
			"count": 3615,
			"type": "VEC4"
		},
		{
			"bufferView" : 2,
			"byteOffset": 40,
			"componentType": 5126,
			"count": 3615,
			"type": "VEC2"
		},
		{
			"bufferView" : 3,
			"byteOffset": 0,
			"componentType": 5123,
			"count": 12816,
			"type": "SCALAR"
		},
		{
			"bufferView" : 4,
			"byteOffset": 0,
			"componentType": 5126,
			"count": 144,
			"type": "VEC3",
			"min": [-3.068208, 201.4224, -33.14769],
			"max": [-0.2010033, 204.1493, 33.14769]
		},
		{
			"bufferView" : 4,
			"byteOffset": 12,
			"componentType": 5126,
			"count": 144,
			"type": "VEC3"
		},
		{
			"bufferView" : 4,
			"byteOffset": 24,
			"componentType": 5126,
			"count": 144,
			"type": "VEC4"
		},
		{
			"bufferView" : 4,
			"byteOffset": 40,
			"componentType": 5126,
			"count": 144,
			"type": "VEC2"
		},
		{
			"bufferView" : 5,
			"byteOffset": 0,
			"componentType": 5123,
			"count": 480,
			"type": "SCALAR"
		},
		{
			"bufferView" : 6,
			"byteOffset": 0,
			"componentType": 5126,
			"count": 1210,
			"type": "VEC3",
			"min": [-4.593632, 10.68185, -37.6372],
			"max": [4.593632, 182.3064, 37.6372]
		},
		{
			"bufferView" : 6,
			"byteOffset": 12,
			"componentType": 5126,
			"count": 1210,
			"type": "VEC3"
		},
		{
			"bufferView" : 6,
			"byteOffset": 24,
			"componentType": 5126,
			"count": 1210,
			"type": "VEC4"
		},
		{
			"bufferView" : 6,
			"byteOffset": 40,
			"componentType": 5126,
			"count": 1210,
			"type": "VEC2"
		},
		{
			"bufferView" : 7,
			"byteOffset": 0,
			"componentType": 5123,
			"count": 2748,
			"type": "SCALAR"
		},
		{
			"bufferView" : 8,
			"byteOffset": 0,
			"componentType": 5126,
			"count": 967,
			"type": "VEC3",
			"min": [-16.08252, 182.2897, -5.400226],
			"max": [3.542311, 221.5332, 5.400226]
		},
		{
			"bufferView" : 8,
			"byteOffset": 12,
			"componentType": 5126,
			"count": 967,
			"type": "VEC3"
		},
		{
			"bufferView" : 8,
			"byteOffset": 24,
			"componentType": 5126,
			"count": 967,
			"type": "VEC4"
		},
		{
			"bufferView" : 8,
			"byteOffset": 40,
			"componentType": 5126,
			"count": 967,
			"type": "VEC2"
		},
		{
			"bufferView" : 9,
			"byteOffset": 0,
			"componentType": 5123,
			"count": 3834,
			"type": "SCALAR"
		},
		{
			"bufferView" : 10,
			"byteOffset": 0,
			"componentType": 5126,
			"count": 5308,
			"type": "VEC3",
			"min": [-13.90732, 182.3332, -37.52949],
			"max": [4.329072, 220.7986, 37.52949]
		},
		{
			"bufferView" : 10,
			"byteOffset": 12,
			"componentType": 5126,
			"count": 5308,
			"type": "VEC3"
		},
		{
			"bufferView" : 10,
			"byteOffset": 24,
			"componentType": 5126,
			"count": 5308,
			"type": "VEC4"
		},
		{
			"bufferView" : 10,
			"byteOffset": 40,
			"componentType": 5126,
			"count": 5308,
			"type": "VEC2"
		},
		{
			"bufferView" : 11,
			"byteOffset": 0,
			"componentType": 5123,
			"count": 19608,
			"type": "SCALAR"
		},
		{
			"bufferView" : 12,
			"byteOffset": 0,
			"componentType": 5126,
			"count": 4,
			"type": "VEC3",
			"min": [-0.555, 0, -0.555],
			"max": [0.555, 0, 0.555]
		},
		{
			"bufferView" : 12,
			"byteOffset": 12,
			"componentType": 5126,
			"count": 4,
			"type": "VEC3"
		},
		{
			"bufferView" : 12,
			"byteOffset": 24,
			"componentType": 5126,
			"count": 4,
			"type": "VEC4"
		},
		{
			"bufferView" : 12,
			"byteOffset": 40,
			"componentType": 5126,
			"count": 4,
			"type": "VEC2"
		},
		{
			"bufferView" : 13,
			"byteOffset": 0,
			"componentType": 5123,
			"count": 6,
			"type": "SCALAR"
		},
		{
			"bufferView" : 14,
			"byteOffset": 0,
			"componentType": 5126,
			"count": 970,
			"type": "VEC3",
			"min": [-0.5167681, -0.005084872, -0.4520775],
			"max": [0.271787, 0.4874229, 0.4520775]
		},
		{
			"bufferView" : 14,
			"byteOffset": 12,
			"componentType": 5126,
			"count": 970,
			"type": "VEC3"
		},
		{
			"bufferView" : 14,
			"byteOffset": 24,
			"componentType": 5126,
			"count": 970,
			"type": "VEC4"
		},
		{
			"bufferView" : 14,
			"byteOffset": 40,
			"componentType": 5126,
			"count": 970,
			"type": "VEC2"
		},
		{
			"bufferView" : 15,
			"byteOffset": 0,
			"componentType": 5123,
			"count": 2064,
			"type": "SCALAR"
		},
		{
			"bufferView" : 16,
			"byteOffset": 0,
			"componentType": 5126,
			"count": 158,
			"type": "VEC3",
			"min": [-0.03132819, 0.1135613, -0.376372],
			"max": [0.03160298, 1.823064, 0.3760068]
		},
		{
			"bufferView" : 16,
			"byteOffset": 12,
			"componentType": 5126,
			"count": 158,
			"type": "VEC3"
		},
		{
			"bufferView" : 16,
			"byteOffset": 24,
			"componentType": 5126,
			"count": 158,
			"type": "VEC4"
		},
		{
			"bufferView" : 16,
			"byteOffset": 40,
			"componentType": 5126,
			"count": 158,
			"type": "VEC2"
		},
		{
			"bufferView" : 17,
			"byteOffset": 0,
			"componentType": 5123,
			"count": 324,
			"type": "SCALAR"
		},
		{
			"bufferView" : 18,
			"byteOffset": 0,
			"componentType": 5126,
			"count": 399,
			"type": "VEC3",
			"min": [-0.1585852, 1.831255, -0.01882022],
			"max": [0.03494366, 2.215332, 0.01882024]
		},
		{
			"bufferView" : 18,
			"byteOffset": 12,
			"componentType": 5126,
			"count": 399,
			"type": "VEC3"
		},
		{
			"bufferView" : 18,
			"byteOffset": 24,
			"componentType": 5126,
			"count": 399,
			"type": "VEC4"
		},
		{
			"bufferView" : 18,
			"byteOffset": 40,
			"componentType": 5126,
			"count": 399,
			"type": "VEC2"
		},
		{
			"bufferView" : 19,
			"byteOffset": 0,
			"componentType": 5123,
			"count": 906,
			"type": "SCALAR"
		},
		{
			"bufferView" : 20,
			"byteOffset": 0,
			"componentType": 5126,
			"count": 958,
			"type": "VEC3",
			"min": [-0.1361691, 1.823332, -0.3600302],
			"max": [0.04257458, 2.201377, 0.3605614]
		},
		{
			"bufferView" : 20,
			"byteOffset": 12,
			"componentType": 5126,
			"count": 958,
			"type": "VEC3"
		},
		{
			"bufferView" : 20,
			"byteOffset": 24,
			"componentType": 5126,
			"count": 958,
			"type": "VEC4"
		},
		{
			"bufferView" : 20,
			"byteOffset": 40,
			"componentType": 5126,
			"count": 958,
			"type": "VEC2"
		},
		{
			"bufferView" : 21,
			"byteOffset": 0,
			"componentType": 5123,
			"count": 2544,
			"type": "SCALAR"
		}
	],
	"lights": [
		{
			"type": "Spot",
			"color": [0.7803922, 0.8901961, 1, 0],
			"range": 11
		}
	],
	"bufferViews": [
			{
				"buffer": 0,
				"byteLength": 5760,
				"byteOffset": 0,
				"byteStride": 48,
				"target": 34962
			},
			{
				"buffer": 0,
				"byteLength": 960,
				"byteOffset": 664944,
				"target": 34963
			},
			{
				"buffer": 0,
				"byteLength": 173520,
				"byteOffset": 5760,
				"byteStride": 48,
				"target": 34962
			},
			{
				"buffer": 0,
				"byteLength": 25632,
				"byteOffset": 665904,
				"target": 34963
			},
			{
				"buffer": 0,
				"byteLength": 6912,
				"byteOffset": 179280,
				"byteStride": 48,
				"target": 34962
			},
			{
				"buffer": 0,
				"byteLength": 960,
				"byteOffset": 691536,
				"target": 34963
			},
			{
				"buffer": 0,
				"byteLength": 58080,
				"byteOffset": 186192,
				"byteStride": 48,
				"target": 34962
			},
			{
				"buffer": 0,
				"byteLength": 5496,
				"byteOffset": 692496,
				"target": 34963
			},
			{
				"buffer": 0,
				"byteLength": 46416,
				"byteOffset": 244272,
				"byteStride": 48,
				"target": 34962
			},
			{
				"buffer": 0,
				"byteLength": 7668,
				"byteOffset": 697992,
				"target": 34963
			},
			{
				"buffer": 0,
				"byteLength": 254784,
				"byteOffset": 290688,
				"byteStride": 48,
				"target": 34962
			},
			{
				"buffer": 0,
				"byteLength": 39216,
				"byteOffset": 705660,
				"target": 34963
			},
			{
				"buffer": 0,
				"byteLength": 192,
				"byteOffset": 545472,
				"byteStride": 48,
				"target": 34962
			},
			{
				"buffer": 0,
				"byteLength": 12,
				"byteOffset": 744876,
				"target": 34963
			},
			{
				"buffer": 0,
				"byteLength": 46560,
				"byteOffset": 545664,
				"byteStride": 48,
				"target": 34962
			},
			{
				"buffer": 0,
				"byteLength": 4128,
				"byteOffset": 744888,
				"target": 34963
			},
			{
				"buffer": 0,
				"byteLength": 7584,
				"byteOffset": 592224,
				"byteStride": 48,
				"target": 34962
			},
			{
				"buffer": 0,
				"byteLength": 648,
				"byteOffset": 749016,
				"target": 34963
			},
			{
				"buffer": 0,
				"byteLength": 19152,
				"byteOffset": 599808,
				"byteStride": 48,
				"target": 34962
			},
			{
				"buffer": 0,
				"byteLength": 1812,
				"byteOffset": 749664,
				"target": 34963
			},
			{
				"buffer": 0,
				"byteLength": 45984,
				"byteOffset": 618960,
				"byteStride": 48,
				"target": 34962
			},
			{
				"buffer": 0,
				"byteLength": 5088,
				"byteOffset": 751476,
				"target": 34963
			}
	],
	"buffers": [
		{
			"byteLength": 756564,
			"uri": "light.bin"
		}
	]
}