{
	"asset": {
		"version" : "2.0",
		"generator": "technik's gltf 2.0 exporter"
	},
	"scene" : 0,
	"scenes": [
		{
			"name": "unityScene",
			"nodes": [ 0 ]
		}
	],
	"nodes": [
		{
			"name": "Cube",
			"translation": [
				0,
				0,
				0
			],
			"mesh": 0
		}
	],
	"meshes": [
		{
			"primitives": [
				{
					"attributes": {
						"POSITION": 0,
						"NORMAL": 1,
						"TANGENT": 2,
						"TEXCOORD_0": 3
					},
					"indices" : 4
				}
			]
		}
	],
	"accessors": [
		{
			"bufferView" : 0,
			"byteOffset": 0,
			"componentType": 5126,
			"count": 24,
			"type": "VEC3",
			"min": [-0.5, -0.5, -0.5],
			"max": [0.5, 0.5, 0.5]
		},
		{
			"bufferView" : 0,
			"byteOffset": 12,
			"componentType": 5126,
			"count": 24,
			"type": "VEC3"
		},
		{
			"bufferView" : 0,
			"byteOffset": 24,
			"componentType": 5126,
			"count": 24,
			"type": "VEC4"
		},
		{
			"bufferView" : 0,
			"byteOffset": 40,
			"componentType": 5126,
			"count": 24,
			"type": "VEC2"
		},
		{
			"bufferView" : 1,
			"byteOffset": 0,
			"componentType": 5123,
			"count": 36,
			"type": "SCALAR"
		}
	],
	"bufferViews": [
			{
				"buffer": 0,
				"byteLength": 1152,
				"byteOffset": 0,
				"byteStride": 48,
				"target": 34962
			},
			{
				"buffer": 0,
				"byteLength": 72,
				"byteOffset": 1152,
				"target": 34963
			}
	],
	"buffers": [
		{
			"byteLength": 1224,
			"uri": "scene.bin"
		}
	]
}